<?xml version="1.0" encoding="UTF-8"?>
<svg version="1.1" xmlns="http://www.w3.org/2000/svg" width="32" height="32">
<path d="M0 0 C293.37 0 586.74 0 889 0 C889 240.24 889 480.48 889 728 C595.63 728 302.26 728 0 728 C0 487.76 0 247.52 0 0 Z " fill="#FEFEFE" transform="translate(0,0)"/>
<path d="M0 0 C105.27 0 210.54 0 319 0 C317.73694629 3.78916112 316.70192589 6.84355528 314.93139648 10.28833008 C314.52528641 11.08356583 314.11917633 11.87880157 313.70075989 12.69813538 C313.26197006 13.54669601 312.82318024 14.39525665 312.37109375 15.26953125 C311.90962448 16.17017807 311.44815521 17.07082489 310.97270203 17.99876404 C309.46502695 20.93878 307.951335 23.87565178 306.4375 26.8125 C305.38685234 28.85821631 304.33656239 30.90411638 303.28662109 32.95019531 C300.67343159 38.04007792 298.055307 43.12740089 295.43511963 48.21368408 C293.75108827 51.48326753 292.06901973 54.7538573 290.38717651 58.02456665 C286.96662549 64.67610979 283.54036042 71.32468945 280.11032104 77.97134399 C276.72696839 84.5278134 273.34833703 91.08671219 269.9699707 97.64575195 C266.64695618 104.09732716 263.32342881 110.5486382 260 117 C242.84 117 225.68 117 208 117 C211.96 122.94 211.96 122.94 216 129 C216 129.66 216 130.32 216 131 C216.71808838 131.27602051 217.43617676 131.55204102 218.17602539 131.83642578 C220.9323982 132.97214575 223.53877471 134.24314875 226.18359375 135.6171875 C227.18237549 136.13555176 228.18115723 136.65391602 229.21020508 137.18798828 C230.2752124 137.74470215 231.34021973 138.30141602 232.4375 138.875 C233.54697998 139.45362793 234.65645996 140.03225586 235.79956055 140.62841797 C246.60745624 146.28452695 257.31569917 152.11466181 268 158 C269.93868716 159.06531334 271.87749029 160.13041565 273.81640625 161.1953125 C278.54597756 163.79378069 283.27374074 166.39551296 288 169 C288 169.33 288 169.66 288 170 C271.25820727 170.44499368 254.51834745 170.77942394 237.77206039 170.98443127 C229.9951115 171.08217891 222.22184749 171.21525783 214.44726562 171.43334961 C207.66593363 171.6234872 200.88726949 171.74547051 194.10334611 171.7876814 C190.51361112 171.81234561 186.93150247 171.86967979 183.34423065 172.00887108 C161.57539134 172.82149769 161.57539134 172.82149769 155.63533783 168.13394165 C151.710102 163.64931242 149.17701245 158.68886451 146.93252945 153.20107555 C145.74702915 150.40290577 144.19249068 147.95208714 142.484375 145.4453125 C136.9274647 136.66752405 131.41283919 127.86750421 126 119 C121.35252305 123.23360145 118.10074252 128.05784839 114.6875 133.3125 C114.13771484 134.14845703 113.58792969 134.98441406 113.02148438 135.84570312 C111.67564543 137.89371891 110.33535595 139.9451401 109 142 C105.11914932 139.1354002 102.39350434 136.14578493 99.5625 132.25 C98.45394744 130.73491206 97.34477995 129.22016153 96.21777344 127.71875 C95 126 95 126 93.74316406 123.84375 C91.06786006 119.51864351 91.06786006 119.51864351 86.64770508 117.36425781 C83.93053936 117.21269667 81.33842425 117.29871889 78.625 117.5 C77.69816406 117.53609375 76.77132812 117.5721875 75.81640625 117.609375 C73.53994939 117.70324951 71.27216785 117.8342879 69 118 C59.1833892 135.25305064 49.5902036 152.61775598 40 170 C-5.21 170 -50.42 170 -97 170 C-93.49141124 167.36855843 -90.11708844 165.4621971 -86.19921875 163.59375 C-85.53429916 163.27243607 -84.86937958 162.95112213 -84.18431091 162.62007141 C-82.02070371 161.57584466 -79.85418549 160.53782239 -77.6875 159.5 C-76.19173214 158.77987823 -74.69612768 158.05941696 -73.20068359 157.33862305 C-69.48723487 155.55011073 -65.77131896 153.76679566 -62.05450439 151.98529053 C-60.1605249 151.07698385 -58.26729214 150.16714988 -56.37451172 149.25634766 C-53.29224391 147.77317523 -50.20901683 146.29203173 -47.125 144.8125 C-46.24932373 144.39226562 -45.37364746 143.97203125 -44.47143555 143.5390625 C-39.99119805 141.39831695 -35.4981174 139.28535161 -30.9921875 137.19921875 C-30.08581543 136.77858154 -29.17944336 136.35794434 -28.24560547 135.92456055 C-26 135 -26 135 -24 135 C-23.72397949 134.28191162 -23.44795898 133.56382324 -23.16357422 132.82397461 C-22.02785425 130.0676018 -20.75685125 127.46122529 -19.3828125 124.81640625 C-18.86477051 123.81826904 -18.34672852 122.82013184 -17.81298828 121.79174805 C-17.25595215 120.72609619 -16.69891602 119.66044434 -16.125 118.5625 C-15.54347168 117.44721924 -14.96194336 116.33193848 -14.36279297 115.18286133 C-10.21488004 107.25547633 -5.976127 99.38216338 -1.67138672 91.5390625 C3.17432431 82.70733779 7.94136768 73.83405301 12.67919922 64.9440918 C15.34089834 59.95227516 18.00342469 54.96441554 20.765625 50.02734375 C21.34618652 48.97921509 21.34618652 48.97921509 21.93847656 47.90991211 C22.90869075 46.16428525 23.89121726 44.42551617 24.875 42.6875 C26.14755319 39.64751183 26.05742269 39.00377569 25 36 C23.89264308 34.09949173 23.89264308 34.09949173 22.48046875 32.234375 C21.95799561 31.51636719 21.43552246 30.79835938 20.8972168 30.05859375 C20.05090698 28.91583984 20.05090698 28.91583984 19.1875 27.75 C18.32475464 26.56857422 18.32475464 26.56857422 17.44458008 25.36328125 C14.48686201 21.32544088 11.49188958 17.31717802 8.46875 13.328125 C7.91678955 12.59883789 7.3648291 11.86955078 6.79614258 11.11816406 C5.73856799 9.72561327 4.67603528 8.33681155 3.6081543 6.95214844 C0 2.21793683 0 2.21793683 0 0 Z " fill="#1F2C44" transform="translate(294,249)"/>
<path d="M0 0 C78.54 0 157.08 0 238 0 C236.64751119 4.05746643 235.41349542 7.42152199 233.53125 11.16796875 C233.047771 12.1336377 232.56429199 13.09930664 232.06616211 14.09423828 C231.54932861 15.11501465 231.03249512 16.13579102 230.5 17.1875 C229.96318604 18.25468262 229.42637207 19.32186523 228.87329102 20.42138672 C225.23695713 27.62521102 221.51523952 34.77992937 217.72509766 41.90380859 C214.04774997 48.83945396 210.54793148 55.85968253 207.10522461 62.91455078 C206.2714266 64.60524103 205.41525307 66.2851138 204.53514099 67.9521637 C202.92775206 71.04321957 202.92775206 71.04321957 201.55422974 74.54499817 C199.86271971 78.40985508 198.09438374 82.06398731 195 85 C189.48225657 87.00070115 184.27276919 86.78212612 178.46875 86.5859375 C176.86592852 86.58225848 175.263082 86.58476678 173.66027832 86.59317017 C169.46262882 86.59870104 165.27061197 86.520793 161.07421875 86.42486572 C156.78408281 86.34176061 152.4939441 86.33839819 148.203125 86.328125 C139.80006073 86.29635136 131.40126856 86.17634206 123 86 C123.37089752 86.64895233 123.74179504 87.29790466 124.12393188 87.96652222 C125.82803587 90.95241526 127.52732296 93.94102368 129.2265625 96.9296875 C129.80994385 97.95022217 130.3933252 98.97075684 130.99438477 100.0222168 C134.00257501 105.32095021 136.88125863 110.62091134 139.42759705 116.15805054 C144.98758621 127.70141512 155.54411146 132.42454214 166.70678711 137.73583984 C168.89934066 138.94451037 170.34900584 140.137844 172 142 C139.8064284 145.77240079 139.8064284 145.77240079 130.96972656 140.03125 C126.04665162 134.62650191 123.29824176 128.1002544 120.51757812 121.40869141 C118.0238264 115.80737841 114.65458009 110.81152249 111.3125 105.6875 C110.07419511 103.71209347 108.83975701 101.73425725 107.609375 99.75390625 C105.22159575 95.93719438 102.81500758 92.13340633 100.390625 88.33984375 C99.54697388 87.01690308 99.54697388 87.01690308 98.6862793 85.66723633 C97.62917933 84.01220973 96.56833161 82.35956899 95.50317383 80.7097168 C95.03935303 79.98308838 94.57553223 79.25645996 94.09765625 78.5078125 C93.69039307 77.87504395 93.28312988 77.24227539 92.86352539 76.59033203 C92 75 92 75 92 73 C121.04 72.67 150.08 72.34 180 72 C183.96 64.41 187.92 56.82 192 49 C194.08968925 45.11487917 196.18189009 41.23692543 198.3125 37.375 C202.58126197 29.60381762 206.79608525 21.80727024 211 14 C178.33 14 145.66 14 112 14 C111.34 15.65 110.68 17.3 110 19 C108.70211044 21.02318078 107.37535339 23.02866014 106 25 C101 20 101 20 99.12036133 17.3684082 C94.21138656 13.64241147 89.26423894 14.2732829 83.26171875 14.29296875 C82.02581497 14.27784744 80.78991119 14.26272614 79.51655579 14.24714661 C76.24321905 14.21149278 72.97070394 14.19711157 69.69720459 14.19311523 C66.3519655 14.18376844 63.00718269 14.14592739 59.66210938 14.11132812 C53.10806572 14.04840296 46.5543217 14.01352707 40 14 C39.77562256 14.77400146 39.55124512 15.54800293 39.32006836 16.34545898 C37.54691489 21.25434271 35.22491848 25.81550683 32.87890625 30.47265625 C32.37834213 31.47332626 31.87777802 32.47399628 31.36204529 33.50498962 C30.30567832 35.61470987 29.24737309 37.72346057 28.18725586 39.83129883 C26.56749656 43.05256319 24.95415986 46.27698134 23.34179688 49.50195312 C22.3128772 51.5548766 21.28359259 53.60761721 20.25390625 55.66015625 C19.77256729 56.62172134 19.29122833 57.58328644 18.79530334 58.57398987 C18.34150803 59.47520065 17.88771271 60.37641144 17.42016602 61.30493164 C17.02426773 62.09291641 16.62836945 62.88090118 16.22047424 63.69276428 C14.90523053 66.17915619 13.44718892 68.58801846 12 71 C35.76 71.33 59.52 71.66 84 72 C81.69 75.63 79.38 79.26 77 83 C76.08734375 84.43730469 75.1746875 85.87460937 74.234375 87.35546875 C73.40722368 88.63344323 72.57912537 89.91080536 71.75 91.1875 C71.11964844 92.18620117 71.11964844 92.18620117 70.4765625 93.20507812 C69.39640281 94.85758659 68.20634904 96.43722965 67 98 C66.01 98 65.02 98 64 98 C61.95703125 95.8828125 61.95703125 95.8828125 59.8125 93.125 C59.09707031 92.22007812 58.38164062 91.31515625 57.64453125 90.3828125 C56 88 56 88 56 86 C38.51 86 21.02 86 3 86 C2.34 87.98 1.68 89.96 1 92 C-0.16240514 94.43161282 -1.3500557 96.8206048 -2.59765625 99.20703125 C-3.12739296 100.23252327 -3.12739296 100.23252327 -3.66783142 101.2787323 C-4.79535046 103.45877375 -5.92889427 105.63561859 -7.0625 107.8125 C-7.79660346 109.23092345 -8.53033028 110.64954188 -9.26367188 112.06835938 C-14.44727629 122.07895364 -19.72503662 132.03618028 -25 142 C-41.83 142 -58.66 142 -76 142 C-72.2763156 139.2072367 -69.92848075 138.15689377 -65.609375 136.734375 C-51.12532425 131.54001325 -40.70793159 126.32828153 -33.81686401 112.04229736 C-31.63062441 107.30174955 -29.55509352 102.52509425 -27.57177734 97.69628906 C-25.496256 92.70427907 -22.87458222 88.05909484 -20.1875 83.375 C-13.75516723 71.79544707 -7.77683775 59.97819279 -1.76049805 48.17919922 C-1.37029984 47.41502686 -0.98010162 46.65085449 -0.57807922 45.86352539 C0.18872925 44.36066995 0.95382607 42.8569398 1.71711731 41.35229492 C3.46835788 37.91600339 5.25275325 34.51400506 7.16552734 31.16455078 C7.81602051 30.01841309 8.46651367 28.87227539 9.13671875 27.69140625 C9.71510498 26.70470947 10.29349121 25.7180127 10.8894043 24.70141602 C12.19348258 21.52937245 12.12674352 20.20374471 11 17 C9.91224966 15.05521377 9.91224966 15.05521377 8.49609375 13.30078125 C8.00302734 12.64916016 7.50996094 11.99753906 7.00195312 11.32617188 C6.48568359 10.66166016 5.96941406 9.99714844 5.4375 9.3125 C4.41120811 7.97844772 3.38885889 6.64135002 2.37109375 5.30078125 C1.91661865 4.71466064 1.46214355 4.12854004 0.99389648 3.5246582 C0 2.21793683 0 2.21793683 0 0 Z " fill="#FCFCFC" transform="translate(330,263)"/>
<path d="M0 0 C3.42441996 0.165116 6.85074409 0.2370428 10.27801514 0.31738281 C16.97631538 0.49301428 23.66615639 0.76003625 30.35809326 1.09863281 C29.65977918 4.93212409 28.64564668 7.77514748 26.74090576 11.18847656 C26.21625732 12.13787109 25.69160889 13.08726562 25.15106201 14.06542969 C24.60063232 15.04576172 24.05020264 16.02609375 23.48309326 17.03613281 C22.40148409 18.98225857 21.32073037 20.92886006 20.24090576 22.87597656 C19.76024658 23.73441162 19.2795874 24.59284668 18.78436279 25.47729492 C17.24044257 28.31486278 15.80277184 31.20927565 14.35809326 34.09863281 C-23.26190674 34.09863281 -60.88190674 34.09863281 -99.64190674 34.09863281 C-96.26506388 23.96810423 -96.26506388 23.96810423 -93.97784424 19.44238281 C-93.49573486 18.48332031 -93.01362549 17.52425781 -92.51690674 16.53613281 C-92.02190674 15.56675781 -91.52690674 14.59738281 -91.01690674 13.59863281 C-90.51417236 12.59832031 -90.01143799 11.59800781 -89.49346924 10.56738281 C-85.79678311 3.25350919 -85.79678311 3.25350919 -84.64190674 2.09863281 C-63.03529535 -0.4428147 -63.03529535 -0.4428147 -55.58087158 3.06982422 C-52.27020197 5.7598097 -50.51671435 9.34901759 -48.64190674 13.09863281 C-47.49659796 14.48866569 -46.31346311 15.84925306 -45.07940674 17.16113281 C-42.64190674 20.09863281 -42.64190674 20.09863281 -42.64190674 22.09863281 C-41.98190674 22.09863281 -41.32190674 22.09863281 -40.64190674 22.09863281 C-40.38965332 21.44378906 -40.1373999 20.78894531 -39.87750244 20.11425781 C-39.26588257 18.62152344 -39.26588257 18.62152344 -38.64190674 17.09863281 C-38.40499115 16.47279297 -38.16807556 15.84695313 -37.92398071 15.20214844 C-30.67938289 -2.53675854 -17.0320359 -0.90867541 0 0 Z " fill="#FCFCFC" transform="translate(482.64190673828125,288.9013671875)"/>
<path d="M0 0 C9.24 0 18.48 0 28 0 C27.13476081 5.19143514 25.89557648 8.70906074 23.5078125 13.2265625 C23.16120575 13.89666351 22.814599 14.56676453 22.45748901 15.25717163 C21.72670856 16.6659958 20.99194355 18.07275952 20.25341797 19.47753906 C19.12712349 21.62095885 18.01377529 23.77071718 16.90234375 25.921875 C16.18824987 27.29466116 15.47343047 28.66707022 14.7578125 30.0390625 C14.42645294 30.67768219 14.09509338 31.31630188 13.75369263 31.97427368 C10.05353806 38.99180821 10.05353806 38.99180821 8 41 C5.36450195 41.45410156 5.36450195 41.45410156 2.23828125 41.390625 C1.12001953 41.37773437 0.00175781 41.36484375 -1.15039062 41.3515625 C-2.31763672 41.31804687 -3.48488281 41.28453125 -4.6875 41.25 C-5.86634766 41.23195313 -7.04519531 41.21390625 -8.25976562 41.1953125 C-11.17398926 41.14811859 -14.08659031 41.08229077 -17 41 C-15.88080777 38.70534331 -14.75555523 36.41406155 -13.625 34.125 C-13.27574463 33.41480713 -12.92648926 32.70461426 -12.56665039 31.97290039 C-10.56780553 27.96167251 -8.47645078 24.04106973 -6.20703125 20.17578125 C-5.51649658 18.98927979 -5.51649658 18.98927979 -4.81201172 17.77880859 C-3.91153966 16.24496721 -2.99566196 14.72004293 -2.06298828 13.20556641 C-1.64903809 12.49706543 -1.23508789 11.78856445 -0.80859375 11.05859375 C1.24686369 9.10783443 2.03206771 7.39419142 1.77294922 4.20898438 C1.05134997 1.99710825 1.05134997 1.99710825 0 0 Z " fill="#1B385E" transform="translate(650,468)"/>
<path d="M0 0 C9.24 0 18.48 0 28 0 C27.11093598 5.33438413 25.81555388 8.77660301 23.1875 13.3125 C22.67219727 14.26092773 22.67219727 14.26092773 22.14648438 15.22851562 C19.54762817 19.77773295 19.54762817 19.77773295 16.73828125 20.91796875 C16.16464844 20.94503906 15.59101563 20.97210938 15 21 C15.24621094 21.65355469 15.49242187 22.30710937 15.74609375 22.98046875 C16.12378094 27.47204101 14.16181055 30.42964297 12.0625 34.3125 C11.67642578 35.05306641 11.29035156 35.79363281 10.89257812 36.55664062 C9.94092639 38.37770259 8.97211604 40.18977954 8 42 C4.7 42 1.4 42 -2 42 C-1.42334609 37.2128572 0.64082996 33.74871176 3.0625 29.6875 C3.43955078 29.04232422 3.81660156 28.39714844 4.20507812 27.73242188 C5.13037493 26.15121848 6.06432681 24.5750854 7 23 C5.68 23 4.36 23 3 23 C2.731875 23.85851562 2.46375 24.71703125 2.1875 25.6015625 C0.22428359 31.21997789 -2.05390922 36.48813577 -6 41 C-9.53223878 42.01802515 -12.43402691 41.77489958 -16 41 C-14.68883577 36.696743 -13.02403325 32.96429682 -10.8125 29.05078125 C-10.19632813 27.95572266 -9.58015625 26.86066406 -8.9453125 25.73242188 C-8.30335938 24.60384766 -7.66140625 23.47527344 -7 22.3125 C-6.03707031 20.60223633 -6.03707031 20.60223633 -5.0546875 18.85742188 C-0.34706805 10.52060208 -0.34706805 10.52060208 2 7 C1.74276031 4.97080157 1.74276031 4.97080157 1 3 C0.67 2.01 0.34 1.02 0 0 Z " fill="#1E3B60" transform="translate(307,468)"/>
<path d="M0 0 C5.28 0 10.56 0 16 0 C14.35469457 4.11326357 12.58436426 7.72782052 10.4453125 11.5859375 C9.93108231 12.51595078 9.93108231 12.51595078 9.40646362 13.4647522 C8.31536855 15.43635947 7.22019858 17.40566982 6.125 19.375 C5.39687804 20.68996169 4.66901107 22.0050646 3.94140625 23.3203125 C0.66517273 29.23551483 -2.63662741 35.13391268 -6 41 C-9.3 41 -12.6 41 -16 41 C-15.08421158 37.33684631 -13.99093892 34.88247129 -12.19921875 31.60546875 C-11.63396484 30.56712891 -11.06871094 29.52878906 -10.48632812 28.45898438 C-9.89271484 27.37939453 -9.29910156 26.29980469 -8.6875 25.1875 C-7.81448242 23.58551758 -7.81448242 23.58551758 -6.92382812 21.95117188 C-6.35470703 20.90896484 -5.78558594 19.86675781 -5.19921875 18.79296875 C-4.65185059 17.78540527 -4.10448242 16.7778418 -3.54052734 15.73974609 C-2.25819016 13.45917749 -0.88842806 11.29975341 0.54296875 9.11328125 C2.62797429 5.58878404 2.62797429 5.58878404 0 0 Z " fill="#1C395F" transform="translate(213,468)"/>
<path d="M0 0 C2.625 -0.1875 2.625 -0.1875 5 0 C0.50260575 9.09752086 -4.04449737 18.14016196 -9 27 C-10.65 27 -12.3 27 -14 27 C-12.4322225 21.46823962 -9.81919201 16.77830535 -7 11.8125 C-6.54882812 11.00619141 -6.09765625 10.19988281 -5.6328125 9.36914062 C-3.83608061 6.17170207 -2.03578139 3.05367208 0 0 Z " fill="#ECEFF2" transform="translate(497,475)"/>
<path d="M0 0 C1.65 0 3.3 0 5 0 C3.63358421 3.59747227 2.0328614 6.12498789 -1 9 C-1.99 9 -2.98 9 -4 9 C-2.80100302 5.9168649 -1.52299523 2.93720508 0 0 Z " fill="#EEF0F3" transform="translate(661,475)"/>
<path d="M0 0 C1.32 0 2.64 0 4 0 C2.80100302 3.0831351 1.52299523 6.06279492 0 9 C-1.32 9 -2.64 9 -4 9 C-2.80100302 5.9168649 -1.52299523 2.93720508 0 0 Z " fill="#E3E7EB" transform="translate(265,475)"/>
<path d="M0 0 C0.99 0 1.98 0 3 0 C2.3543999 3.48624056 1.07639763 6.12498789 -1 9 C-1.99 9 -2.98 9 -4 9 C-2.94124926 5.59687262 -1.99097846 2.98646769 0 0 Z " fill="#EBEEF1" transform="translate(445,475)"/>
</svg> 